<svg xmlns="http://www.w3.org/2000/svg" xmlns:xlink="http://www.w3.org/1999/xlink" width="867" zoomAndPan="magnify" viewBox="0 0 650.25 215.999996" height="288" preserveAspectRatio="xMidYMid meet" version="1.0"><defs><clipPath id="bb3b19501b"><path d="M 96.941406 59.074219 L 192.523438 59.074219 L 192.523438 156.75 L 96.941406 156.75 Z M 96.941406 59.074219 " clip-rule="nonzero"/></clipPath></defs><path fill="#1e293b" d="M 78.292969 54.4375 L 78.292969 70.378906 L 50.371094 70.378906 L 50.371094 86.238281 L 76.171875 86.238281 L 76.171875 102.183594 L 50.371094 102.183594 L 50.371094 134.160156 L 32.203125 134.160156 L 32.203125 54.4375 Z M 78.292969 54.4375 " fill-opacity="1" fill-rule="nonzero"/><path fill="#1e293b" d="M 79.453125 134.160156 L 79.453125 84.59375 L 96.5625 84.59375 L 96.5625 91.746094 L 96.75 91.746094 C 96.875 91.484375 97.085938 91.160156 97.375 90.773438 C 97.667969 90.386719 98.292969 89.710938 99.25 88.753906 C 100.21875 87.785156 101.25 86.914062 102.347656 86.136719 C 103.441406 85.363281 104.855469 84.667969 106.589844 84.058594 C 108.335938 83.445312 110.113281 83.140625 111.925781 83.140625 C 113.785156 83.140625 115.617188 83.398438 117.417969 83.914062 C 119.230469 84.429688 120.550781 84.941406 121.386719 85.453125 L 122.738281 86.238281 L 115.589844 100.730469 C 113.464844 98.925781 110.503906 98.027344 106.707031 98.027344 C 104.644531 98.027344 102.871094 98.476562 101.386719 99.378906 C 99.90625 100.277344 98.859375 101.375 98.246094 102.664062 C 97.636719 103.953125 97.203125 105.046875 96.941406 105.945312 C 96.683594 106.847656 96.5625 107.558594 96.5625 108.070312 L 96.5625 134.160156 Z M 79.453125 134.160156 " fill-opacity="1" fill-rule="nonzero"/><path fill="#1e293b" d="M 123.410156 128.027344 C 118.777344 122.96875 116.460938 116.769531 116.460938 109.421875 C 116.460938 102.078125 118.777344 95.859375 123.410156 90.773438 C 128.050781 85.683594 133.949219 83.140625 141.097656 83.140625 C 147.667969 83.140625 153.078125 85.203125 157.335938 89.320312 L 157.335938 84.59375 L 174.441406 84.59375 L 174.441406 134.160156 L 157.523438 134.160156 L 157.523438 128.546875 L 157.335938 128.546875 C 153.078125 133.257812 147.667969 135.613281 141.097656 135.613281 C 133.949219 135.613281 128.050781 133.082031 123.410156 128.027344 Z M 137.960938 101.019531 C 135.738281 103.210938 134.628906 106.011719 134.628906 109.421875 C 134.628906 112.832031 135.691406 115.621094 137.8125 117.777344 C 139.9375 119.941406 142.734375 121.019531 146.214844 121.019531 C 149.566406 121.019531 152.324219 119.925781 154.484375 117.734375 C 156.644531 115.546875 157.726562 112.773438 157.726562 109.421875 C 157.726562 106.011719 156.609375 103.210938 154.382812 101.019531 C 152.164062 98.832031 149.441406 97.734375 146.214844 97.734375 C 142.929688 97.734375 140.175781 98.832031 137.960938 101.019531 Z M 137.960938 101.019531 " fill-opacity="1" fill-rule="nonzero"/><path fill="#1e293b" d="M 178.496094 134.160156 L 178.496094 84.59375 L 195.605469 84.59375 L 195.605469 89.8125 L 195.792969 89.8125 C 200.242188 85.367188 204.972656 83.140625 209.992188 83.140625 C 213.597656 83.140625 216.976562 83.882812 220.140625 85.367188 C 223.296875 86.847656 225.679688 89.136719 227.289062 92.226562 C 232.320312 86.171875 237.792969 83.140625 243.714844 83.140625 C 248.996094 83.140625 253.53125 84.625 257.332031 87.589844 C 261.140625 90.546875 263.046875 95.183594 263.046875 101.5 L 263.046875 134.160156 L 245.9375 134.160156 L 245.9375 106.136719 C 245.9375 103.5 245.210938 101.296875 243.757812 99.523438 C 242.3125 97.75 240.144531 96.863281 237.246094 96.863281 C 234.734375 96.863281 232.816406 97.617188 231.492188 99.128906 C 230.171875 100.640625 229.449219 102.464844 229.324219 104.59375 L 229.324219 134.160156 L 212.21875 134.160156 L 212.21875 106.136719 C 212.21875 103.5 211.492188 101.296875 210.039062 99.523438 C 208.589844 97.75 206.421875 96.863281 203.527344 96.863281 C 200.878906 96.863281 198.898438 97.6875 197.582031 99.332031 C 196.261719 100.972656 195.605469 102.921875 195.605469 105.175781 L 195.605469 134.160156 Z M 178.496094 134.160156 " fill-opacity="1" fill-rule="nonzero"/><path fill="#1e293b" d="M 316.28125 111.746094 L 280.339844 111.746094 C 280.339844 115.226562 281.460938 117.804688 283.710938 119.480469 C 285.96875 121.148438 288.417969 121.980469 291.066406 121.980469 C 293.835938 121.980469 296.023438 121.613281 297.636719 120.875 C 299.242188 120.128906 301.078125 118.660156 303.144531 116.46875 L 315.511719 122.664062 C 310.355469 131.296875 301.792969 135.613281 289.816406 135.613281 C 282.332031 135.613281 275.917969 133.054688 270.570312 127.9375 C 265.230469 122.816406 262.5625 116.644531 262.5625 109.433594 C 262.5625 102.21875 265.230469 96.03125 270.570312 90.875 C 275.917969 85.722656 282.332031 83.140625 289.816406 83.140625 C 297.671875 83.140625 304.0625 85.417969 308.988281 89.957031 C 313.917969 94.492188 316.386719 100.984375 316.386719 109.421875 C 316.386719 110.582031 316.347656 111.359375 316.28125 111.746094 Z M 280.816406 102.269531 L 299.667969 102.269531 C 299.28125 99.695312 298.261719 97.714844 296.617188 96.324219 C 294.980469 94.941406 292.871094 94.246094 290.292969 94.246094 C 287.453125 94.246094 285.195312 94.988281 283.523438 96.46875 C 281.855469 97.953125 280.953125 99.886719 280.816406 102.269531 Z M 280.816406 102.269531 " fill-opacity="1" fill-rule="nonzero"/><path fill="#1e293b" d="M 343.246094 97.152344 C 340.019531 97.152344 337.25 98.34375 334.933594 100.730469 C 332.617188 103.113281 331.460938 105.976562 331.460938 109.320312 C 331.460938 112.742188 332.617188 115.640625 334.933594 118.027344 C 337.25 120.410156 340.019531 121.601562 343.246094 121.601562 C 344.789062 121.601562 346.25 121.410156 347.636719 121.019531 C 349.023438 120.632812 350.039062 120.246094 350.691406 119.855469 L 351.5625 119.277344 L 357.347656 131.164062 C 356.898438 131.484375 356.273438 131.886719 355.472656 132.371094 C 354.664062 132.859375 352.828125 133.515625 349.964844 134.347656 C 347.09375 135.191406 344.019531 135.613281 340.734375 135.613281 C 333.453125 135.613281 327.058594 133.054688 321.546875 127.9375 C 316.042969 122.816406 313.292969 116.671875 313.292969 109.523438 C 313.292969 102.304688 316.042969 96.101562 321.546875 90.917969 C 327.058594 85.738281 333.453125 83.140625 340.734375 83.140625 C 344.019531 83.140625 347.046875 83.53125 349.816406 84.304688 C 352.585938 85.070312 354.546875 85.839844 355.703125 86.617188 L 357.347656 87.777344 L 351.5625 99.464844 C 349.429688 97.925781 346.65625 97.152344 343.246094 97.152344 Z M 343.246094 97.152344 " fill-opacity="1" fill-rule="nonzero"/><path fill="#1e293b" d="M 360.144531 128.027344 C 355.511719 122.96875 353.199219 116.769531 353.199219 109.421875 C 353.199219 102.078125 355.511719 95.859375 360.144531 90.773438 C 364.785156 85.683594 370.683594 83.140625 377.835938 83.140625 C 384.40625 83.140625 389.816406 85.203125 394.070312 89.320312 L 394.070312 84.59375 L 411.179688 84.59375 L 411.179688 134.160156 L 394.257812 134.160156 L 394.257812 128.546875 L 394.070312 128.546875 C 389.816406 133.257812 384.40625 135.613281 377.835938 135.613281 C 370.683594 135.613281 364.785156 133.082031 360.144531 128.027344 Z M 374.695312 101.019531 C 372.476562 103.210938 371.367188 106.011719 371.367188 109.421875 C 371.367188 112.832031 372.429688 115.621094 374.550781 117.777344 C 376.671875 119.941406 379.46875 121.019531 382.953125 121.019531 C 386.300781 121.019531 389.058594 119.925781 391.222656 117.734375 C 393.378906 115.546875 394.460938 112.773438 394.460938 109.421875 C 394.460938 106.011719 393.347656 103.210938 391.121094 101.019531 C 388.898438 98.832031 386.179688 97.734375 382.953125 97.734375 C 379.667969 97.734375 376.910156 98.832031 374.695312 101.019531 Z M 374.695312 101.019531 " fill-opacity="1" fill-rule="nonzero"/><path fill="#1e293b" d="M 436.773438 83.140625 C 439.613281 83.140625 442.417969 83.46875 445.191406 84.117188 C 447.957031 84.753906 450.019531 85.394531 451.367188 86.035156 L 453.402344 87.007812 L 447.792969 98.214844 C 443.925781 96.152344 440.25 95.117188 436.773438 95.117188 C 434.84375 95.117188 433.476562 95.332031 432.675781 95.757812 C 431.867188 96.175781 431.46875 96.960938 431.46875 98.113281 C 431.46875 98.375 431.496094 98.636719 431.554688 98.898438 C 431.621094 99.152344 431.753906 99.390625 431.949219 99.625 C 432.140625 99.851562 432.316406 100.042969 432.472656 100.207031 C 432.636719 100.363281 432.910156 100.535156 433.300781 100.730469 C 433.683594 100.925781 433.992188 101.070312 434.214844 101.164062 C 434.4375 101.261719 434.804688 101.410156 435.320312 101.601562 C 435.84375 101.796875 436.230469 101.941406 436.484375 102.039062 C 436.746094 102.136719 437.179688 102.28125 437.792969 102.472656 C 438.402344 102.660156 438.871094 102.785156 439.203125 102.851562 C 441.195312 103.433594 442.929688 104.078125 444.40625 104.785156 C 445.886719 105.492188 447.449219 106.464844 449.097656 107.691406 C 450.746094 108.914062 452.019531 110.460938 452.921875 112.328125 C 453.824219 114.1875 454.273438 116.308594 454.273438 118.695312 C 454.273438 129.972656 446.441406 135.613281 430.785156 135.613281 C 427.246094 135.613281 423.882812 135.0625 420.683594 133.96875 C 417.492188 132.875 415.195312 131.78125 413.78125 130.683594 L 411.65625 128.941406 L 418.621094 117.253906 C 419.132812 117.703125 419.804688 118.230469 420.640625 118.839844 C 421.484375 119.449219 423 120.289062 425.191406 121.355469 C 427.378906 122.421875 429.277344 122.953125 430.886719 122.953125 C 434.421875 122.953125 436.191406 121.761719 436.191406 119.378906 C 436.191406 118.285156 435.742188 117.429688 434.839844 116.820312 C 433.941406 116.207031 432.40625 115.519531 430.246094 114.742188 C 428.097656 113.964844 426.410156 113.253906 425.191406 112.605469 C 422.097656 110.996094 419.644531 109.179688 417.835938 107.152344 C 416.03125 105.117188 415.132812 102.429688 415.132812 99.085938 C 415.132812 94.058594 417.078125 90.144531 420.976562 87.34375 C 424.878906 84.542969 430.144531 83.140625 436.773438 83.140625 Z M 436.773438 83.140625 " fill-opacity="1" fill-rule="nonzero"/><path fill="#1e293b" d="M 458.128906 84.59375 L 458.128906 66.136719 L 475.238281 66.136719 L 475.238281 84.59375 L 485.671875 84.59375 L 485.671875 97.632812 L 475.238281 97.632812 L 475.238281 113.390625 C 475.238281 117.964844 476.523438 120.25 479.101562 120.25 C 479.742188 120.25 480.414062 120.125 481.125 119.871094 C 481.839844 119.609375 482.390625 119.347656 482.78125 119.085938 L 483.347656 118.695312 L 487.605469 132.515625 C 483.933594 134.582031 479.746094 135.613281 475.046875 135.613281 C 471.820312 135.613281 469.046875 135.050781 466.734375 133.925781 C 464.414062 132.792969 462.664062 131.277344 461.472656 129.378906 C 460.28125 127.480469 459.421875 125.480469 458.898438 123.390625 C 458.382812 121.296875 458.128906 119.058594 458.128906 116.671875 L 458.128906 97.632812 L 450.976562 97.632812 L 450.976562 84.59375 Z M 458.128906 84.59375 " fill-opacity="1" fill-rule="nonzero"/><path fill="#1e293b" d="M 545.1875 54.4375 L 577.371094 134.160156 L 557.847656 134.160156 L 551.960938 118.214844 L 521.613281 118.214844 L 515.726562 134.160156 L 496.207031 134.160156 L 528.386719 54.4375 Z M 545.769531 102.269531 L 536.890625 79.085938 L 536.6875 79.085938 L 527.804688 102.269531 Z M 545.769531 102.269531 " fill-opacity="1" fill-rule="nonzero"/><path fill="#1e293b" d="M 572.929688 54.4375 L 591.097656 54.4375 L 591.097656 134.160156 L 572.929688 134.160156 Z M 572.929688 54.4375 " fill-opacity="1" fill-rule="nonzero"/><path fill="#1e293b" d="M 606.167969 113.476562 C 609.257812 113.476562 611.882812 114.558594 614.03125 116.71875 C 616.191406 118.878906 617.273438 121.507812 617.273438 124.59375 C 617.273438 127.617188 616.191406 130.214844 614.03125 132.371094 C 611.882812 134.53125 609.257812 135.613281 606.167969 135.613281 C 603.136719 135.613281 600.539062 134.53125 598.378906 132.371094 C 596.226562 130.214844 595.152344 127.617188 595.152344 124.59375 C 595.152344 121.507812 596.226562 118.878906 598.378906 116.71875 C 600.539062 114.558594 603.136719 113.476562 606.167969 113.476562 Z M 606.167969 113.476562 " fill-opacity="1" fill-rule="nonzero"/><g clip-path="url(#bb3b19501b)"><path fill="#2563eb" d="M 192.191406 107.230469 L 178.148438 107.230469 C 154.097656 102.027344 148.75 96.660156 143.546875 72.574219 L 143.546875 59.074219 L 141.769531 59.074219 L 141.769531 72.71875 C 136.574219 96.679688 131.199219 102.039062 107.199219 107.230469 L 96.953125 107.230469 L 96.953125 109.011719 L 107.199219 109.011719 C 131.199219 114.203125 136.574219 119.558594 141.769531 143.523438 L 141.769531 156.910156 L 143.546875 156.910156 L 143.546875 143.664062 C 148.75 119.582031 154.097656 114.214844 178.148438 109.011719 L 192.191406 109.011719 Z M 192.191406 107.230469 " fill-opacity="1" fill-rule="nonzero"/></g></svg>